<?xml version="1.0" encoding="UTF-8" standalone="no"?>
<!DOCTYPE svg PUBLIC "-//W3C//DTD SVG 1.1//EN"
 "http://www.w3.org/Graphics/SVG/1.1/DTD/svg11.dtd">
<!-- Generated by graphviz version 2.43.0 (0)
 -->
<!-- Title: %3 Pages: 1 -->
<svg width="171pt" height="509pt"
 viewBox="0.00 0.00 170.95 509.00" xmlns="http://www.w3.org/2000/svg" xmlns:xlink="http://www.w3.org/1999/xlink">
<g id="graph0" class="graph" transform="scale(1 1) rotate(0) translate(4 505)">
<title>%3</title>
<polygon fill="white" stroke="transparent" points="-4,4 -4,-505 166.95,-505 166.95,4 -4,4"/>
<!-- elf0 -->
<g id="node1" class="node">
<title>elf0</title>
<ellipse fill="none" stroke="black" cx="55.95" cy="-294" rx="31.4" ry="18"/>
<text text-anchor="middle" x="55.95" y="-290.3" font-family="Times,serif" font-size="14.00">0.elf</text>
</g>
<!-- bin -->
<g id="node4" class="node">
<title>bin</title>
<ellipse fill="none" stroke="black" cx="43.95" cy="-207" rx="32.49" ry="18"/>
<text text-anchor="middle" x="43.95" y="-203.3" font-family="Times,serif" font-size="14.00">*.bin</text>
</g>
<!-- elf0&#45;&gt;bin -->
<g id="edge4" class="edge">
<title>elf0&#45;&gt;bin</title>
<path fill="none" stroke="black" d="M52.84,-275.94C51.86,-270.24 50.8,-263.86 49.95,-258 48.87,-250.59 47.84,-242.54 46.95,-235.11"/>
<polygon fill="black" stroke="black" points="50.42,-234.68 45.79,-225.15 43.47,-235.49 50.42,-234.68"/>
<text text-anchor="middle" x="79.95" y="-246.8" font-family="Times,serif" font-size="14.00"> objcopy</text>
</g>
<!-- elf -->
<g id="node2" class="node">
<title>elf</title>
<ellipse fill="none" stroke="black" cx="81.95" cy="-18" rx="48.19" ry="18"/>
<text text-anchor="middle" x="81.95" y="-14.3" font-family="Times,serif" font-size="14.00">main.elf</text>
</g>
<!-- crc -->
<g id="node3" class="node">
<title>crc</title>
<ellipse fill="none" stroke="black" cx="40.95" cy="-105" rx="40.89" ry="18"/>
<text text-anchor="middle" x="40.95" y="-101.3" font-family="Times,serif" font-size="14.00">crc.txt</text>
</g>
<!-- crc&#45;&gt;elf -->
<g id="edge6" class="edge">
<title>crc&#45;&gt;elf</title>
<path fill="none" stroke="black" d="M38.89,-87.01C38.4,-76.95 39.1,-64.21 43.95,-54 46.09,-49.48 49.11,-45.26 52.52,-41.44"/>
<polygon fill="black" stroke="black" points="55.23,-43.67 59.9,-34.16 50.32,-38.69 55.23,-43.67"/>
<text text-anchor="middle" x="76.95" y="-57.8" font-family="Times,serif" font-size="14.00"> &#45;&#45;defsym</text>
</g>
<!-- bin&#45;&gt;crc -->
<g id="edge5" class="edge">
<title>bin&#45;&gt;crc</title>
<path fill="none" stroke="black" d="M42.19,-188.93C41.68,-183.23 41.2,-176.85 40.95,-171 40.41,-158.57 40.34,-144.79 40.43,-133.13"/>
<polygon fill="black" stroke="black" points="43.93,-133.16 40.55,-123.12 36.93,-133.07 43.93,-133.16"/>
<text text-anchor="middle" x="75.45" y="-159.8" font-family="Times,serif" font-size="14.00"> syms.def</text>
<text text-anchor="middle" x="75.45" y="-144.8" font-family="Times,serif" font-size="14.00"> gen&#45;crc</text>
</g>
<!-- obj -->
<g id="node5" class="node">
<title>obj</title>
<ellipse fill="none" stroke="black" cx="89.95" cy="-381" rx="27" ry="18"/>
<text text-anchor="middle" x="89.95" y="-377.3" font-family="Times,serif" font-size="14.00">*.o</text>
</g>
<!-- obj&#45;&gt;elf0 -->
<g id="edge2" class="edge">
<title>obj&#45;&gt;elf0</title>
<path fill="none" stroke="black" d="M82.17,-363.74C79.46,-357.88 76.47,-351.19 73.95,-345 70.85,-337.4 67.73,-329.04 64.97,-321.37"/>
<polygon fill="black" stroke="black" points="68.23,-320.07 61.6,-311.8 61.63,-322.39 68.23,-320.07"/>
<text text-anchor="middle" x="91.95" y="-333.8" font-family="Times,serif" font-size="14.00"> Link</text>
</g>
<!-- obj&#45;&gt;elf -->
<g id="edge3" class="edge">
<title>obj&#45;&gt;elf</title>
<path fill="none" stroke="black" d="M100.52,-364.14C110.5,-347.61 123.95,-320.59 123.95,-295 123.95,-295 123.95,-295 123.95,-104 123.95,-80.92 120.48,-74.53 109.95,-54 108.08,-50.36 105.8,-46.75 103.36,-43.3"/>
<polygon fill="black" stroke="black" points="105.96,-40.93 97.09,-35.14 100.41,-45.2 105.96,-40.93"/>
<text text-anchor="middle" x="141.95" y="-203.3" font-family="Times,serif" font-size="14.00"> Link</text>
</g>
<!-- *.c -->
<g id="node6" class="node">
<title>*.c</title>
<ellipse fill="none" stroke="black" cx="89.95" cy="-483" rx="27" ry="18"/>
<text text-anchor="middle" x="89.95" y="-479.3" font-family="Times,serif" font-size="14.00">*.c</text>
</g>
<!-- *.c&#45;&gt;obj -->
<g id="edge1" class="edge">
<title>*.c&#45;&gt;obj</title>
<path fill="none" stroke="black" d="M89.95,-464.58C89.95,-449.38 89.95,-427.07 89.95,-409.46"/>
<polygon fill="black" stroke="black" points="93.45,-409.22 89.95,-399.22 86.45,-409.22 93.45,-409.22"/>
<text text-anchor="middle" x="126.45" y="-435.8" font-family="Times,serif" font-size="14.00"> Compile</text>
<text text-anchor="middle" x="126.45" y="-420.8" font-family="Times,serif" font-size="14.00"> Assemble</text>
</g>
</g>
</svg>
